<svg viewBox="0 0 1080 1080" fill="none" xmlns="http://www.w3.org/2000/svg">      <defs>  <filter id="filter" x="-20%" y="-20%" width="140%" height="140%" filterUnits="objectBoundingBox" primitiveUnits="userSpaceOnUse" color-interpolation-filters="linearRGB">    <feMorphology operator="dilate" radius="20 20" in="SourceAlpha" result="morphology"/>    <feFlood flood-color="#ffffff" flood-opacity="1" result="flood"/>    <feComposite in="flood" in2="morphology" operator="in" result="composite"/>    <feMerge result="merge">          <feMergeNode in="composite" result="mergeNode"/>      <feMergeNode in="SourceGraphic" result="mergeNode1"/>      </feMerge>  </filter></defs>      <g id="notion-avatar" filter="url(#filter)">        <g id="notion-avatar-face" fill="#ffffff">      <!--?xml version="1.0" encoding="UTF-8"?-->    <title>Face/ 8</title>    <g id="Face/-8" stroke="none" stroke-width="1" fill-rule="evenodd" stroke-linecap="round" stroke-linejoin="round">        <path d="M532,379 C664.54834,379 772,486.45166 772,619 C772,751.54834 724.54834,899 592,899 C492.560218,899 373.476049,816.010833 320.189513,718.584987 C317.498129,718.859681 314.765451,719 312,719 C267.81722,719 232,683.18278 232,639 C232,599.134956 261.158843,566.080325 299.312086,560.00055 C325.599297,455.979213 419.809919,379 532,379 Z M295.858895,624.545187 L304.141105,655.454813" id="Path" stroke="#000000" stroke-width="24"/>    </g>    </g><g id="notion-avatar-nose">      <!--?xml version="1.0" encoding="UTF-8"?-->    <title>Nose/ 10</title>    <g id="Nose/-10" stroke="none" stroke-width="1" fill="none" fill-rule="evenodd" stroke-linecap="round" stroke-linejoin="round">        <path d="M631,694.380659 C660.333333,687.46022 678,677.333333 684,664 C693,644 637.033407,606.392531 660.161467,579" id="Path" stroke="#000000" stroke-width="16"/>    </g>    </g><g id="notion-avatar-mouth">      <!--?xml version="1.0" encoding="UTF-8"?-->    <title>Mouth/ 0</title>    <g id="Mouth/-0" stroke="none" stroke-width="1" fill="none" fill-rule="evenodd" stroke-linecap="round" stroke-linejoin="round">        <path d="M549,759 C576.33038,765.666667 599.663714,769 619,769 C638.336286,769 655.002953,765.666667 669,759" id="Path" stroke="#000000" stroke-width="16"/>    </g>    </g><g id="notion-avatar-eyes">      <!--?xml version="1.0" encoding="UTF-8"?-->    <title>Eyes/ 6</title>    <g id="Eyes/-6" stroke="none" stroke-width="1" fill="none" fill-rule="evenodd">        <g id="Group" transform="translate(518.000000, 518.575690)">            <circle id="Oval" fill="#000000" cx="48.2285714" cy="20" r="20"/>            <path d="M0,22.4243101 C16,9.09097677 32,2.42431011 48,2.42431011 C64,2.42431011 80,9.09097677 96,22.4243101" id="Path" stroke="#000000" stroke-width="12" stroke-linecap="round" stroke-linejoin="round"/>            <circle id="Oval" fill="#000000" transform="translate(193.771429, 20.000000) scale(-1, 1) translate(-193.771429, -20.000000) " cx="193.771429" cy="20" r="20"/>            <path d="M146,22.4243101 C162,9.09097677 178,2.42431011 194,2.42431011 C210,2.42431011 226,9.09097677 242,22.4243101" id="Path" stroke="#000000" stroke-width="12" stroke-linecap="round" stroke-linejoin="round" transform="translate(194.000000, 12.424310) scale(-1, 1) translate(-194.000000, -12.424310) "/>        </g>    </g>    </g><g id="notion-avatar-eyebrows">      <!--?xml version="1.0" encoding="UTF-8"?-->    <title>Eyebrows/ 6</title>    <g id="Eyebrows/-6" stroke="none" stroke-width="1" fill="none" fill-rule="evenodd" stroke-linecap="round" stroke-linejoin="round">        <path d="M620,495.140162 C589.850248,491.823271 565.234864,491.823271 546.153846,495.140162 C527.072829,498.457053 511.688213,505.410333 500,516 C517.257672,497.488903 532.642287,487.058984 546.153846,484.710243 C559.665405,482.361502 584.280789,485.838142 620,495.140162 Z M658,495.140162 C693.719211,485.838142 718.334595,482.361502 731.846154,484.710243 C745.357713,487.058984 760.742328,497.488903 778,516 C766.311787,505.410333 750.927171,498.457053 731.846154,495.140162 C712.765136,491.823271 688.149752,491.823271 658,495.140162 Z" id="Combined-Shape" stroke="#000000" stroke-width="8" fill="#000000"/>    </g>    </g><g id="notion-avatar-glasses">      <!--?xml version="1.0" encoding="UTF-8"?-->    <title>Glasses/ 0</title>    <g id="Glasses/-0" stroke="none" stroke-width="1" fill="none" fill-rule="evenodd"/>    </g><g id="notion-avatar-hair">      <g id="Hairstyle/ 34"><g id="Shape"><path fill-rule="evenodd" clip-rule="evenodd" d="M279.001 719L312.001 727L363.001 804L362.012 804.138C354.394 805.17 349.724 805.124 348.001 804C335.11 795.586 327.667 781.235 316.001 769C301.896 754.207 289.563 737.54 279.001 719ZM555.001 245C595.484 249.465 630.917 268.728 660.824 294.427L663.31 294.901C703.949 302.792 748.312 311.503 768.001 340C793.334 376.666 803.668 419.666 799.001 469C782.061 429.032 756.001 397 740.033 393.568C760.909 430.158 768.001 461.184 768.001 473C768.001 512 751.334 552.666 744.001 578C744.001 543.333 736.334 485.333 691.001 442C637.019 390.399 541.818 418 502.001 418C471.276 418 487.967 464.879 460.621 499.411C464.677 513 473.001 533 494.001 552C461.561 551.983 448.728 532.541 438.816 511.856L435.487 512.41C432.89 512.847 430.302 513.31 427.911 513.879C431.102 526.945 438.217 542.546 449.256 560.682C434.736 548.356 424.268 534.345 417.851 518.648C417.503 519.067 417.217 519.517 417.001 520C393.365 572.739 393.001 593 381.001 655H366.001L364.629 651.851C349.93 618.257 338.054 595.64 329.001 584L328.16 582.929C314.41 565.583 299.959 555.5 288.001 559L287.246 559.23L286.711 559.403C277.924 562.306 258.241 571.727 244.001 589C238.75 595.369 233.084 607.369 227.001 625L226.066 623.594L224.701 621.517C212.007 602.071 205.107 587.565 204.001 578C200.119 544.442 196.001 434 232.001 383C268.001 332 279.908 338.533 308.001 332C332.001 251.333 417.202 229.801 555.001 245Z" fill="black"/><path d="M279.001 719L280.414 713.169C278.088 712.605 275.648 713.478 274.208 715.391C272.768 717.303 272.602 719.889 273.787 721.97L279.001 719ZM312.001 727L317.003 723.687C316.167 722.425 314.885 721.525 313.414 721.169L312.001 727ZM363.001 804L363.829 809.942C365.87 809.658 367.623 808.346 368.47 806.467C369.318 804.588 369.141 802.405 368.003 800.687L363.001 804ZM362.012 804.138L362.818 810.083C362.826 810.082 362.833 810.081 362.84 810.08L362.012 804.138ZM348.001 804L351.28 798.975L348.001 804ZM316.001 769L311.658 773.14L316.001 769ZM555.001 245L554.343 250.964L555.001 245ZM660.824 294.427L656.914 298.977C657.709 299.661 658.669 300.124 659.699 300.32L660.824 294.427ZM663.31 294.901L664.453 289.011C664.447 289.01 664.441 289.009 664.435 289.008L663.31 294.901ZM768.001 340L763.064 343.41L768.001 340ZM799.001 469L793.477 471.341C794.549 473.871 797.202 475.349 799.917 474.929C802.632 474.51 804.715 472.3 804.974 469.565L799.001 469ZM740.033 393.568L741.294 387.702C738.98 387.205 736.59 388.114 735.192 390.024C733.794 391.933 733.649 394.486 734.821 396.542L740.033 393.568ZM744.001 578H738.001C738.001 580.988 740.2 583.521 743.158 583.94C746.117 584.36 748.933 582.539 749.764 579.668L744.001 578ZM691.001 442L686.855 446.337L691.001 442ZM460.621 499.411L455.918 495.686C454.702 497.22 454.312 499.251 454.872 501.127L460.621 499.411ZM494.001 552L493.998 558C496.48 558.001 498.706 556.474 499.599 554.158C500.492 551.842 499.867 549.216 498.026 547.551L494.001 552ZM438.816 511.856L444.227 509.263C443.073 506.854 440.465 505.499 437.83 505.937L438.816 511.856ZM435.487 512.41L434.501 506.492L434.491 506.493L435.487 512.41ZM427.911 513.879L426.521 508.042C424.967 508.412 423.625 509.386 422.792 510.749C421.959 512.112 421.703 513.751 422.082 515.302L427.911 513.879ZM449.256 560.682L445.373 565.256C447.617 567.162 450.913 567.157 453.152 565.245C455.391 563.333 455.912 560.078 454.381 557.563L449.256 560.682ZM417.851 518.648L423.405 516.377C422.607 514.427 420.845 513.038 418.763 512.718C416.68 512.397 414.582 513.193 413.235 514.814L417.851 518.648ZM417.001 520L411.526 517.546L417.001 520ZM381.001 655V661C383.875 661 386.345 658.962 386.892 656.14L381.001 655ZM366.001 655L360.5 657.397C361.454 659.585 363.614 661 366.001 661V655ZM364.629 651.851L370.129 649.455L370.126 649.446L364.629 651.851ZM329.001 584L333.737 580.316C333.731 580.309 333.726 580.302 333.72 580.295L329.001 584ZM328.16 582.929L332.879 579.223C332.873 579.216 332.868 579.209 332.862 579.202L328.16 582.929ZM288.001 559L286.316 553.241C286.294 553.248 286.273 553.254 286.251 553.26L288.001 559ZM287.246 559.23L285.497 553.49C285.465 553.5 285.432 553.51 285.4 553.521L287.246 559.23ZM286.711 559.403L284.865 553.694C284.853 553.698 284.841 553.702 284.829 553.706L286.711 559.403ZM244.001 589L239.371 585.183L244.001 589ZM227.001 625L222.004 628.322C223.268 630.222 225.499 631.241 227.762 630.951C230.026 630.662 231.929 629.113 232.673 626.957L227.001 625ZM226.066 623.594L221.053 626.89C221.058 626.899 221.064 626.908 221.07 626.916L226.066 623.594ZM224.701 621.517L219.676 624.796C219.68 624.802 219.683 624.807 219.687 624.813L224.701 621.517ZM204.001 578L209.961 577.31L204.001 578ZM308.001 332L309.36 337.844C311.46 337.355 313.137 335.778 313.752 333.711L308.001 332ZM277.587 724.831L310.587 732.831L313.414 721.169L280.414 713.169L277.587 724.831ZM306.999 730.313L357.999 807.313L368.003 800.687L317.003 723.687L306.999 730.313ZM362.173 798.057L361.185 798.195L362.84 810.08L363.829 809.942L362.173 798.057ZM361.206 798.192C357.526 798.691 354.776 798.897 352.855 798.878C351.895 798.869 351.278 798.803 350.926 798.739C350.508 798.662 350.77 798.642 351.28 798.975L344.721 809.024C346.094 809.92 347.585 810.327 348.765 810.543C350.012 810.771 351.361 810.864 352.737 810.877C355.486 810.904 358.88 810.617 362.818 810.083L361.206 798.192ZM351.28 798.975C345.669 795.313 341.073 790.248 336.229 784.187C331.547 778.33 326.417 771.23 320.343 764.859L311.658 773.14C317.251 779.006 321.676 785.199 326.855 791.679C331.871 797.956 337.442 804.273 344.721 809.024L351.28 798.975ZM320.343 764.859C306.59 750.435 294.545 734.165 284.214 716.03L273.787 721.97C284.58 740.916 297.202 757.979 311.658 773.14L320.343 764.859ZM554.343 250.964C593.293 255.26 627.633 273.817 656.914 298.977L664.735 289.876C634.201 263.638 597.675 243.67 555.659 239.036L554.343 250.964ZM659.699 300.32L662.185 300.795L664.435 289.008L661.949 288.533L659.699 300.32ZM662.166 300.791C682.581 304.755 703.359 308.827 721.474 315.367C739.612 321.914 754.253 330.658 763.064 343.41L772.937 336.589C762.059 320.845 744.675 310.984 725.549 304.08C706.401 297.167 684.677 292.938 664.453 289.011L662.166 300.791ZM763.064 343.41C787.504 378.784 797.577 420.339 793.028 468.435L804.974 469.565C809.758 418.994 799.164 374.549 772.937 336.589L763.064 343.41ZM804.525 466.658C795.865 446.224 784.849 427.751 773.858 413.86C768.364 406.917 762.794 401.013 757.432 396.564C752.172 392.2 746.662 388.856 741.294 387.702L738.772 399.435C741.387 399.996 745.123 401.944 749.77 405.799C754.315 409.571 759.312 414.816 764.447 421.306C774.713 434.28 785.198 451.807 793.477 471.341L804.525 466.658ZM734.821 396.542C755.396 432.603 762.001 462.589 762.001 473H774.001C774.001 459.78 766.422 427.714 745.244 390.595L734.821 396.542ZM762.001 473C762.001 491.707 757.995 511.019 752.972 529.011C750.466 537.988 747.728 546.565 745.138 554.537C742.566 562.455 740.106 569.878 738.237 576.331L749.764 579.668C751.563 573.455 753.936 566.294 756.551 558.244C759.149 550.247 761.953 541.47 764.53 532.238C769.674 513.814 774.001 493.293 774.001 473H762.001ZM750.001 578C750.001 542.675 742.223 482.662 695.147 437.663L686.855 446.337C730.445 488.004 738.001 543.992 738.001 578H750.001ZM695.147 437.663C666.431 410.214 627.142 404.194 591.113 404.65C573.018 404.879 555.434 406.75 540.048 408.533C524.45 410.341 511.51 412 502.001 412V424C512.401 424 526.292 422.208 541.43 420.454C556.779 418.674 573.835 416.87 591.265 416.649C626.286 416.205 661.589 422.185 686.855 446.337L695.147 437.663ZM502.001 412C497.387 412 493.279 412.884 489.706 414.784C486.116 416.693 483.424 419.437 481.377 422.612C477.47 428.667 475.667 436.747 474.152 444.622C470.968 461.163 468.483 479.818 455.918 495.686L465.325 503.136C480.105 484.471 482.947 462.421 485.935 446.89C487.506 438.728 489 432.93 491.46 429.117C492.596 427.357 493.855 426.169 495.34 425.379C496.842 424.58 498.933 424 502.001 424V412ZM454.872 501.127C459.137 515.415 467.926 536.5 489.975 556.449L498.026 547.551C478.075 529.5 470.218 510.585 466.371 497.695L454.872 501.127ZM494.004 546C479.135 545.992 469.248 541.59 461.914 535.166C454.373 528.559 449.115 519.463 444.227 509.263L433.405 514.449C438.43 524.935 444.544 535.902 454.007 544.192C463.678 552.664 476.427 557.991 493.998 558L494.004 546ZM437.83 505.937L434.501 506.492L436.473 518.329L439.802 517.774L437.83 505.937ZM434.491 506.493C431.879 506.933 429.122 507.423 426.521 508.042L429.301 519.716C431.483 519.196 433.901 518.762 436.483 518.327L434.491 506.493ZM422.082 515.302C425.479 529.209 432.934 545.407 444.13 563.802L454.381 557.563C443.5 539.686 436.725 524.681 433.74 512.455L422.082 515.302ZM453.139 556.108C439.261 544.327 429.414 531.079 423.405 516.377L412.297 520.918C419.121 537.611 430.211 552.385 445.373 565.256L453.139 556.108ZM413.235 514.814C412.565 515.621 411.981 516.531 411.526 517.546L422.476 522.454C422.466 522.477 422.457 522.492 422.453 522.498C422.449 522.505 422.452 522.499 422.466 522.482L413.235 514.814ZM411.526 517.546C387.534 571.08 387.043 592.207 375.11 653.86L386.892 656.14C398.959 593.792 399.197 574.397 422.476 522.454L411.526 517.546ZM381.001 649H366.001V661H381.001V649ZM371.501 652.603L370.129 649.455L359.128 654.248L360.5 657.397L371.501 652.603ZM370.126 649.446C355.436 615.872 343.303 592.616 333.737 580.316L324.265 587.683C332.805 598.664 344.424 620.642 359.132 654.256L370.126 649.446ZM333.72 580.295L332.879 579.223L323.441 586.634L324.282 587.705L333.72 580.295ZM332.862 579.202C325.755 570.236 318.21 562.806 310.58 558.054C302.978 553.319 294.567 550.827 286.316 553.241L289.686 564.758C293.393 563.674 298.187 564.473 304.237 568.24C310.26 571.992 316.815 578.275 323.458 586.656L332.862 579.202ZM286.251 553.26L285.497 553.49L288.996 564.969L289.75 564.739L286.251 553.26ZM285.4 553.521L284.865 553.694L288.558 565.112L289.093 564.939L285.4 553.521ZM284.829 553.706C275.318 556.848 254.535 566.79 239.371 585.183L248.63 592.816C261.947 576.664 280.531 567.764 288.594 565.1L284.829 553.706ZM239.371 585.183C233.375 592.457 227.425 605.373 221.329 623.043L232.673 626.957C238.742 609.365 244.126 598.28 248.63 592.816L239.371 585.183ZM231.997 621.678L231.063 620.272L221.07 626.916L222.004 628.322L231.997 621.678ZM231.08 620.298L229.714 618.221L219.687 624.813L221.053 626.89L231.08 620.298ZM229.725 618.237C223.467 608.649 218.72 600.405 215.424 593.476C212.094 586.476 210.405 581.146 209.961 577.31L198.041 578.689C198.703 584.419 201.017 591.124 204.587 598.63C208.191 606.206 213.241 614.938 219.676 624.796L229.725 618.237ZM209.961 577.31C208.06 560.877 206.075 525.266 209.027 487.508C212.001 449.473 219.904 410.542 236.903 386.46L227.099 379.54C208.098 406.458 200.06 448.247 197.063 486.573C194.045 525.175 196.06 561.565 198.041 578.689L209.961 577.31ZM236.903 386.46C254.756 361.167 266.036 351.054 275.674 346.179C280.473 343.751 285.118 342.494 290.49 341.441C295.621 340.435 302.274 339.492 309.36 337.844L306.642 326.156C299.681 327.775 294.31 328.464 288.183 329.665C282.296 330.818 276.447 332.34 270.258 335.471C257.919 341.712 245.245 353.832 227.099 379.54L236.903 386.46ZM313.752 333.711C325.12 295.501 350.791 271.289 390.69 258.254C430.99 245.087 485.718 243.395 554.343 250.964L555.659 239.036C486.484 231.406 429.712 232.881 386.963 246.847C343.812 260.945 314.882 287.832 302.25 330.289L313.752 333.711Z" fill="black"/></g></g>    </g><g id="notion-avatar-accessories">      <!--?xml version="1.0" encoding="UTF-8"?-->    <title>Accessories/ 0</title>    <g id="Accessories/-0" stroke="none" stroke-width="1" fill="none" fill-rule="evenodd"/>    </g><g id="notion-avatar-details">      <!--?xml version="1.0" encoding="UTF-8"?-->    <title>Details/ 0</title>    <g id="Details/-0" stroke="none" stroke-width="1" fill="none" fill-rule="evenodd"/>    </g><g id="notion-avatar-beard">      <g id="Beard/ 15"><g id="Group"><g id="Combined Shape"><path fill-rule="evenodd" clip-rule="evenodd" d="M369.784 644H359.784C359.784 644 341.471 799.286 411.784 857C482.098 914.714 569.784 925 615 925C660.216 925 690.216 905 707 887C723.784 869 756.082 808.293 743 804C740.172 803.072 729.363 801.658 713.81 800.202C710.947 812.016 705.396 824.233 697.53 835C696.321 836.654 695.156 838.263 694.023 839.826C675.301 865.663 665.637 879 621.229 879C574.135 879 564.884 878 525.238 840C514.752 829.95 507.447 819.544 502.766 809.407C500.067 811.055 497.593 812.617 495.291 814.07C475.74 826.412 468.584 830.929 441 814C406.784 793 369.784 644 369.784 644Z" fill="black"/><path d="M359.784 644V638C356.742 638 354.182 640.276 353.826 643.297L359.784 644ZM369.784 644L375.607 642.554C374.943 639.878 372.541 638 369.784 638V644ZM411.784 857L415.591 852.362H415.591L411.784 857ZM743 804L741.129 809.701L743 804ZM713.81 800.202L714.369 794.228C711.402 793.95 708.681 795.893 707.979 798.789L713.81 800.202ZM697.53 835L702.375 838.539L702.375 838.539L697.53 835ZM694.023 839.826L698.881 843.347H698.881L694.023 839.826ZM525.238 840L521.086 844.332H521.086L525.238 840ZM502.766 809.407L508.214 806.892C507.496 805.338 506.149 804.165 504.511 803.667C502.873 803.169 501.101 803.394 499.64 804.286L502.766 809.407ZM495.291 814.07L492.088 808.997L492.088 808.997L495.291 814.07ZM441 814L444.139 808.886L441 814ZM359.784 650H369.784V638H359.784V650ZM415.591 852.362C382.46 825.168 369.587 774.171 365.392 728.311C363.317 705.625 363.406 684.684 364.017 669.405C364.322 661.772 364.757 655.567 365.114 651.284C365.292 649.142 365.451 647.482 365.565 646.364C365.622 645.806 365.667 645.383 365.698 645.103C365.713 644.963 365.725 644.859 365.733 644.792C365.736 644.759 365.739 644.735 365.741 644.72C365.742 644.712 365.742 644.707 365.743 644.704C365.743 644.703 365.743 644.702 365.743 644.702C365.743 644.702 365.743 644.703 359.784 644C353.826 643.297 353.825 643.299 353.825 643.302C353.825 643.304 353.824 643.307 353.824 643.31C353.823 643.317 353.822 643.326 353.821 643.337C353.818 643.36 353.815 643.392 353.81 643.433C353.8 643.516 353.787 643.636 353.77 643.791C353.736 644.103 353.687 644.559 353.626 645.152C353.506 646.337 353.34 648.069 353.155 650.287C352.786 654.721 352.339 661.099 352.026 668.925C351.401 684.566 351.306 706.054 353.442 729.404C357.668 775.614 370.795 831.118 407.977 861.638L415.591 852.362ZM615 919C570.41 919 484.361 908.81 415.591 852.362L407.977 861.638C479.834 920.619 569.159 931 615 931V919ZM702.612 882.908C686.755 899.914 658.27 919 615 919V931C662.162 931 693.677 910.086 711.388 891.092L702.612 882.908ZM741.129 809.701C739.838 809.277 739.837 808.156 739.972 809.006C740.132 810.007 740.062 811.932 739.395 814.956C738.09 820.872 734.981 828.945 730.781 837.784C722.358 855.506 710.4 874.556 702.612 882.908L711.388 891.092C720.385 881.444 732.967 861.14 741.619 842.935C745.955 833.811 749.517 824.777 751.113 817.541C751.897 813.989 752.335 810.326 751.822 807.115C751.286 803.754 749.433 799.796 744.871 798.299L741.129 809.701ZM713.251 806.176C720.985 806.9 727.498 807.61 732.402 808.249C737.561 808.921 740.36 809.448 741.129 809.701L744.871 798.299C742.813 797.624 738.793 796.98 733.952 796.349C728.856 795.685 722.188 794.96 714.369 794.228L713.251 806.176ZM702.375 838.539C710.705 827.138 716.592 814.199 719.641 801.615L707.979 798.789C705.303 809.834 700.088 821.328 692.685 831.461L702.375 838.539ZM698.881 843.347C700.015 841.783 701.174 840.183 702.375 838.539L692.685 831.461C691.469 833.126 690.296 834.744 689.164 836.306L698.881 843.347ZM621.229 885C643.975 885 658.806 881.598 670.481 874.163C681.936 866.868 689.689 856.033 698.881 843.347L689.164 836.306C679.635 849.456 673.195 858.208 664.035 864.041C655.096 869.734 642.892 873 621.229 873V885ZM521.086 844.332C540.889 863.312 553.891 873.878 568.309 879.358C582.687 884.823 597.95 885 621.229 885V873C597.414 873 584.505 872.677 572.572 868.141C560.68 863.621 549.233 854.688 529.39 835.668L521.086 844.332ZM497.319 811.923C502.343 822.802 510.11 833.812 521.086 844.332L529.39 835.668C519.394 826.088 512.551 816.286 508.214 806.892L497.319 811.923ZM498.494 819.144C500.799 817.689 503.237 816.15 505.893 814.529L499.64 804.286C496.897 805.961 494.387 807.545 492.088 808.997L498.494 819.144ZM437.861 819.114C451.808 827.673 461.898 831.698 471.591 830.996C481.08 830.309 489.124 825.059 498.494 819.144L492.088 808.997C481.907 815.424 476.597 818.603 470.725 819.028C465.056 819.438 457.776 817.256 444.139 808.886L437.861 819.114ZM369.784 644C363.961 645.446 363.961 645.447 363.962 645.449C363.962 645.45 363.963 645.452 363.963 645.455C363.965 645.46 363.966 645.468 363.969 645.477C363.974 645.497 363.981 645.525 363.99 645.563C364.009 645.637 364.036 645.747 364.073 645.891C364.145 646.18 364.253 646.605 364.394 647.16C364.676 648.269 365.094 649.893 365.637 651.965C366.723 656.108 368.31 662.042 370.322 669.227C374.344 683.59 380.07 702.981 386.879 723.053C393.678 743.094 401.606 763.961 410.048 781.215C414.269 789.841 418.678 797.687 423.211 804.122C427.686 810.473 432.567 815.864 437.861 819.114L444.139 808.886C440.879 806.886 437.119 803.027 433.021 797.21C428.982 791.477 424.887 784.238 420.827 775.941C412.709 759.351 404.971 739.031 398.243 719.197C391.525 699.394 385.863 680.223 381.878 665.992C379.886 658.879 378.316 653.01 377.245 648.922C376.709 646.879 376.299 645.281 376.022 644.197C375.884 643.655 375.78 643.242 375.71 642.965C375.675 642.827 375.649 642.722 375.632 642.654C375.624 642.619 375.617 642.594 375.613 642.577C375.611 642.569 375.609 642.563 375.609 642.559C375.608 642.557 375.608 642.556 375.608 642.555C375.607 642.554 375.607 642.554 369.784 644Z" fill="black"/></g><path id="Path" fill-rule="evenodd" clip-rule="evenodd" d="M698.059 729.721C698.059 729.721 701.033 737.719 699.086 738.906C697.74 739.726 669 722.832 616 723C563 723.168 534.188 739.683 532.914 738.906C530.905 737.681 533 732 534.94 729.721C541.033 724.945 571.31 714.711 602.246 712.449C606.205 712.16 610 716.002 616 716.001C622 716 626.18 712.101 629.327 712.287C661.138 714.165 691.805 724.818 698.059 729.721Z" fill="black" stroke="black" stroke-width="12" stroke-linecap="round" stroke-linejoin="round"/><path id="Path_2" fill-rule="evenodd" clip-rule="evenodd" d="M591 867C591 867 604.444 870 616 870C627.556 870 639 867 639 867L648 890H583L591 867Z" fill="black" stroke="black" stroke-width="12" stroke-linecap="round" stroke-linejoin="round"/></g></g>    </g>      </g>      </svg>